<svg xmlns="http://www.w3.org/2000/svg" width="880" height="773" viewBox="0 0 880 773" role="img" aria-labelledby="diagram-title diagram-description" font-family="Segoe UI, Noto Sans, Noto Sans KR, Arial, sans-serif">
<title id="diagram-title">Measurement neighbourhood</title>
<desc id="diagram-description">Synthetic reference study · Explicit ports, negative-feedback signs and portable equations. Not an OEM implementation. Summing input signs are declared explicitly. A feedback edge alone does not imply negative feedback. This example illustrates architecture only. It does not specify gains, bandwidth, sampling, plant parameters or stability.</desc>
<metadata>{&quot;generator&quot;:&quot;control-studio&quot;,&quot;sceneVersion&quot;:1,&quot;view&quot;:&quot;measurement_trace&quot;,&quot;modelRevision&quot;:&quot;c8a23a3b76705a19&quot;}</metadata>
<defs><marker id="cre-signal" viewBox="0 0 10 10" refX="9" refY="5" markerWidth="6" markerHeight="6" orient="auto-start-reverse"><path d="M1 1L9 5L1 9" fill="none" stroke="#137e79" stroke-width="1.5"/></marker><marker id="cre-feedback" viewBox="0 0 10 10" refX="9" refY="5" markerWidth="6" markerHeight="6" orient="auto-start-reverse"><path d="M1 1L9 5L1 9" fill="none" stroke="#7550a0" stroke-width="1.5"/></marker><marker id="cre-power" viewBox="0 0 10 10" refX="9" refY="5" markerWidth="6" markerHeight="6" orient="auto-start-reverse"><path d="M1 1L9 5L1 9" fill="none" stroke="#6b7b90" stroke-width="1.5"/></marker><marker id="cre-off" viewBox="0 0 10 10" refX="9" refY="5" markerWidth="6" markerHeight="6" orient="auto-start-reverse"><path d="M1 1L9 5L1 9" fill="none" stroke="#137e79" stroke-width="1.5"/></marker></defs>
<rect width="100%" height="100%" fill="#f7f9fc"/>

<path data-edge="signal:plant_output" d="M301.53999999999996 309 L405.1 309" fill="none" stroke="#137e79" stroke-width="1.8"  marker-end="url(#cre-signal)"/><rect x="345.53999999999996" y="310" width="15.56" height="22" rx="3" fill="#f7f9fc"/><text x="349.53999999999996" y="325" font-family="Segoe UI, Noto Sans, Noto Sans KR, Arial, sans-serif" font-size="12" font-weight="600" fill="#137e79">y</text>
<path data-edge="signal:current_feedback" d="M465.1 375 L465.1 527 L734.22 527 L734.22 507" fill="none" stroke="#7550a0" stroke-width="1.8" stroke-dasharray="6 4" marker-end="url(#cre-feedback)"/><rect x="630.84" y="528" width="19.64" height="22" rx="3" fill="#f7f9fc"/><text x="634.84" y="543" font-family="Segoe UI, Noto Sans, Noto Sans KR, Arial, sans-serif" font-size="12" font-weight="600" fill="#7550a0">IL</text>
<path data-edge="signal:voltage_feedback" d="M525.1 375 L525.1 395 L734.22 395 L734.22 359" fill="none" stroke="#7550a0" stroke-width="1.8" stroke-dasharray="6 4" marker-end="url(#cre-feedback)"/><rect x="629.1" y="372" width="23.12" height="22" rx="3" fill="#f7f9fc"/><text x="633.1" y="387" font-family="Segoe UI, Noto Sans, Noto Sans KR, Arial, sans-serif" font-size="12" font-weight="600" fill="#7550a0">Vo</text>
<g data-node="heading" transform="translate(40 24)"><g font-family="Segoe UI, Noto Sans, Noto Sans KR, Arial, sans-serif" color="#17283d"><text x="0" y="0" font-size="10" fill="#137e79" font-weight="700" text-anchor="start">CONTROL STUDIO / MODEL-FIRST ENGINEERING</text><text x="0" y="45" font-size="30" fill="#17283d" font-weight="600" text-anchor="start">Measurement neighbourhood</text><text x="0" y="69" font-size="14" fill="#6b7b90" font-weight="400" text-anchor="start">Synthetic reference study · Explicit ports, negative-feedback signs and portable equations. Not an</text><text x="0" y="89" font-size="14" fill="#6b7b90" font-weight="400" text-anchor="start">OEM implementation.</text></g></g>
<g data-node="scope" transform="translate(40 169)"><g font-family="Segoe UI, Noto Sans, Noto Sans KR, Arial, sans-serif" color="#17283d"><text x="0" y="14" font-size="10" fill="#137e79" font-weight="600" text-anchor="start">EXPLICIT SIGNAL CONNECTIONS / DASHED LINES ARE FEEDBACK, NOT AN IMPLIED SIGN</text></g></g>
<g data-node="blocks:sum_v" transform="translate(696.22 267)"><g font-family="Segoe UI, Noto Sans, Noto Sans KR, Arial, sans-serif" color="#17283d"><circle cx="38" cy="46" r="25" fill="#ffffff" stroke="#137e79" stroke-width="1.8"/><path d="M0 46L13 46" fill="none" stroke="#137e79" stroke-width="1.4"/><text x="24" y="51" text-anchor="middle" font-size="15" fill="#137e79">+</text><path d="M38 92L38 71" fill="none" stroke="#137e79" stroke-width="1.4"/><text x="38" y="66" text-anchor="middle" font-size="15" fill="#137e79">−</text><path d="M76 46L63 46" fill="none" stroke="#137e79" stroke-width="1.4"/><text x="38" y="10" font-size="11" fill="#6b7b90" font-weight="400" text-anchor="middle">Voltage error</text></g></g>
<g data-node="blocks:sum_i" transform="translate(696.22 415)"><g font-family="Segoe UI, Noto Sans, Noto Sans KR, Arial, sans-serif" color="#17283d"><circle cx="38" cy="46" r="25" fill="#ffffff" stroke="#137e79" stroke-width="1.8"/><path d="M0 46L13 46" fill="none" stroke="#137e79" stroke-width="1.4"/><text x="24" y="51" text-anchor="middle" font-size="15" fill="#137e79">+</text><path d="M38 92L38 71" fill="none" stroke="#137e79" stroke-width="1.4"/><text x="38" y="66" text-anchor="middle" font-size="15" fill="#137e79">−</text><path d="M76 46L63 46" fill="none" stroke="#137e79" stroke-width="1.4"/><text x="38" y="10" font-size="11" fill="#6b7b90" font-weight="400" text-anchor="middle">Current error</text></g></g>
<g data-node="blocks:plant" transform="translate(107.77999999999997 231)"><g font-family="Segoe UI, Noto Sans, Noto Sans KR, Arial, sans-serif" color="#17283d"><rect x="0.75" y="0.75" width="192.26000000000002" height="154.5" rx="12" fill="#ffffff" stroke="#d9e2ec" stroke-width="1.5"/><path d="M16 36H177.76000000000002" stroke="#d9e2ec"/><text x="16" y="24" font-size="10" fill="#17283d" font-weight="700" text-anchor="start">PLANT</text><text x="16" y="62" font-size="16" fill="#17283d" font-weight="600" text-anchor="start">Modulator / plant</text><svg x="44.452888546085624" y="92" width="104.85422290782877" height="44" viewBox="0 -750 2471.7 1037.2" xmlns="http://www.w3.org/2000/svg"><g stroke="currentColor" fill="currentColor" stroke-width="0" transform="scale(1,-1)"><g data-mml-node="math"><g data-mml-node="msub"><g data-mml-node="mi"><path data-c="1D43A" d="M50 252Q50 367 117 473T286 641T490 704Q580 704 633 653Q642 643 648 636T656 626L657 623Q660 623 684 649Q691 655 699 663T715 679T725 690L740 705H746Q760 705 760 698Q760 694 728 561Q692 422 692 421Q690 416 687 415T669 413H653Q647 419 647 422Q647 423 648 429T650 449T651 481Q651 552 619 605T510 659Q492 659 471 656T418 643T357 615T294 567T236 496T189 394T158 260Q156 242 156 221Q156 173 170 136T206 79T256 45T308 28T353 24Q407 24 452 47T514 106Q517 114 529 161T541 214Q541 222 528 224T468 227H431Q425 233 425 235T427 254Q431 267 437 273H454Q494 271 594 271Q634 271 659 271T695 272T707 272Q721 272 721 263Q721 261 719 249Q714 230 709 228Q706 227 694 227Q674 227 653 224Q646 221 643 215T629 164Q620 131 614 108Q589 6 586 3Q584 1 581 1Q571 1 553 21T530 52Q530 53 528 52T522 47Q448 -22 322 -22Q201 -22 126 55T50 252Z"></path></g><g data-mml-node="mi" transform="translate(819,-150) scale(0.707)"><path data-c="1D45D" d="M23 287Q24 290 25 295T30 317T40 348T55 381T75 411T101 433T134 442Q209 442 230 378L240 387Q302 442 358 442Q423 442 460 395T497 281Q497 173 421 82T249 -10Q227 -10 210 -4Q199 1 187 11T168 28L161 36Q160 35 139 -51T118 -138Q118 -144 126 -145T163 -148H188Q194 -155 194 -157T191 -175Q188 -187 185 -190T172 -194Q170 -194 161 -194T127 -193T65 -192Q-5 -192 -24 -194H-32Q-39 -187 -39 -183Q-37 -156 -26 -148H-6Q28 -147 33 -136Q36 -130 94 103T155 350Q156 355 156 364Q156 405 131 405Q109 405 94 377T71 316T59 280Q57 278 43 278H29Q23 284 23 287ZM178 102Q200 26 252 26Q282 26 310 49T356 107Q374 141 392 215T411 325V331Q411 405 350 405Q339 405 328 402T306 393T286 380T269 365T254 350T243 336T235 326L232 322Q232 321 229 308T218 264T204 212Q178 106 178 102Z"></path></g></g><g data-mml-node="mo" transform="translate(1224.7,0)"><path data-c="28" d="M94 250Q94 319 104 381T127 488T164 576T202 643T244 695T277 729T302 750H315H319Q333 750 333 741Q333 738 316 720T275 667T226 581T184 443T167 250T184 58T225 -81T274 -167T316 -220T333 -241Q333 -250 318 -250H315H302L274 -226Q180 -141 137 -14T94 250Z"></path></g><g data-mml-node="mi" transform="translate(1613.7,0)"><path data-c="1D460" d="M131 289Q131 321 147 354T203 415T300 442Q362 442 390 415T419 355Q419 323 402 308T364 292Q351 292 340 300T328 326Q328 342 337 354T354 372T367 378Q368 378 368 379Q368 382 361 388T336 399T297 405Q249 405 227 379T204 326Q204 301 223 291T278 274T330 259Q396 230 396 163Q396 135 385 107T352 51T289 7T195 -10Q118 -10 86 19T53 87Q53 126 74 143T118 160Q133 160 146 151T160 120Q160 94 142 76T111 58Q109 57 108 57T107 55Q108 52 115 47T146 34T201 27Q237 27 263 38T301 66T318 97T323 122Q323 150 302 164T254 181T195 196T148 231Q131 256 131 289Z"></path></g><g data-mml-node="mo" transform="translate(2082.7,0)"><path data-c="29" d="M60 749L64 750Q69 750 74 750H86L114 726Q208 641 251 514T294 250Q294 182 284 119T261 12T224 -76T186 -143T145 -194T113 -227T90 -246Q87 -249 86 -250H74Q66 -250 63 -250T58 -247T55 -238Q56 -237 66 -225Q221 -64 221 250T66 725Q56 737 55 738Q55 746 60 749Z"></path></g></g></g></svg><circle cx="0" cy="78" r="3" fill="#ffffff" stroke="#17283d" stroke-width="1.3"/><circle cx="193.76000000000002" cy="78" r="3" fill="#ffffff" stroke="#17283d" stroke-width="1.3"/></g></g>
<g data-node="blocks:sense" transform="translate(405.1 243)"><g font-family="Segoe UI, Noto Sans, Noto Sans KR, Arial, sans-serif" color="#17283d"><rect x="0.75" y="0.75" width="178.5" height="130.5" rx="12" fill="#ffffff" stroke="#7550a0" stroke-width="1.5"/><path d="M16 36H164" stroke="#d9e2ec"/><text x="16" y="24" font-size="10" fill="#7550a0" font-weight="700" text-anchor="start">MEASUREMENT</text><text x="16" y="62" font-size="16" fill="#17283d" font-weight="600" text-anchor="start">Measurements</text><text x="16" y="94" font-size="12" fill="#6b7b90" font-weight="400" text-anchor="start">Voltage and inductor</text><text x="16" y="111" font-size="12" fill="#6b7b90" font-weight="400" text-anchor="start">current</text><circle cx="0" cy="66" r="3" fill="#ffffff" stroke="#7550a0" stroke-width="1.3"/><circle cx="60" cy="132" r="3" fill="#ffffff" stroke="#7550a0" stroke-width="1.3"/><circle cx="120" cy="132" r="3" fill="#ffffff" stroke="#7550a0" stroke-width="1.3"/></g></g>
<g data-node="footer" transform="translate(40 597)"><g font-family="Segoe UI, Noto Sans, Noto Sans KR, Arial, sans-serif" color="#17283d"><text x="0" y="20" font-size="11" fill="#6b7b90" font-weight="400" text-anchor="start">Summing input signs are declared explicitly. A feedback edge alone does not imply negative feedback.</text><text x="0" y="43" font-size="11" fill="#6b7b90" font-weight="400" text-anchor="start">This example illustrates architecture only. It does not specify gains, bandwidth, sampling, plant parameters or stability.</text><text x="0" y="66" font-size="11" fill="#6b7b90" font-weight="400" text-anchor="start">This view omits 5 connections at its boundary; absence from this projection is not absence from the model.</text><text x="0" y="89" font-size="11" fill="#6b7b90" font-weight="400" text-anchor="start">Structural checks are not control-stability or compliance validation.</text><text x="0" y="124" font-size="10" fill="#137e79" font-weight="600" text-anchor="start">measurement_trace · MODEL c8a23a3b · SOURCE → SEMANTICS → VIEW → SCENE</text></g></g>
</svg>
