<svg xmlns="http://www.w3.org/2000/svg" width="1440" height="1138" viewBox="0 0 1440 1138" role="img" aria-labelledby="diagram-title diagram-description" font-family="Segoe UI, Noto Sans, Noto Sans KR, Arial, sans-serif">
<title id="diagram-title">OBCM Control Architecture</title>
<desc id="diagram-description">One power stage. Five operating modes. Explicit control responsibility.</desc>
<metadata>{&quot;generator&quot;:&quot;control-rendering-engine&quot;,&quot;schemaVersion&quot;:1,&quot;view&quot;:&quot;overview&quot;}</metadata>
<defs><marker id="arrow" viewBox="0 0 10 10" refX="9" refY="5" markerWidth="7" markerHeight="7" orient="auto-start-reverse"><path d="M1 1L9 5L1 9" fill="none" stroke="#242424" stroke-width="1.5"/></marker><marker id="signal-arrow" viewBox="0 0 10 10" refX="9" refY="5" markerWidth="7" markerHeight="7" orient="auto-start-reverse"><path d="M1 1L9 5L1 9" fill="none" stroke="#111111" stroke-width="1.5"/></marker></defs>
<rect width="100%" height="100%" fill="#ffffff"/>
<text x="48" y="37" font-size="11" font-weight="700" fill="#111111" letter-spacing="2">CONTROL RENDERING ENGINE</text>
<text x="1392" y="37" font-size="11" font-weight="600" fill="#4c4c4c" text-anchor="end">MODEL v1  /  OVERVIEW</text>
<text x="48" y="82" font-size="36" font-weight="600" fill="#121212" >OBCM Control Architecture</text>
<text x="48" y="124" font-size="16" font-weight="400" fill="#4c4c4c" >One power stage. Five operating modes. Explicit control responsibility.</text>
<rect x="48" y="177" width="662" height="112" rx="2" fill="#ffffff" stroke="#a6a6a6"/>
<rect x="48" y="198" width="3" height="70" rx="1" fill="#111111" stroke="#111111"/>
<text x="72" y="213" font-size="21" font-weight="600" fill="#121212" >Grid-connected</text>
<text x="686" y="212" font-size="11" font-weight="600" fill="#4c4c4c" text-anchor="end">02 MODES</text>
<rect x="72" y="234" width="85.75" height="29" rx="7" fill="#eeeeee" stroke="#eeeeee"/>
<text x="84" y="253" font-size="13" font-weight="600" fill="#111111" >Charging</text>
<rect x="165.75" y="234" width="73.14" height="29" rx="7" fill="#eeeeee" stroke="#eeeeee"/>
<text x="177.75" y="253" font-size="13" font-weight="600" fill="#111111" >V2G-AC</text>
<rect x="730" y="177" width="662" height="112" rx="2" fill="#ffffff" stroke="#a6a6a6"/>
<rect x="730" y="198" width="3" height="70" rx="1" fill="#333333" stroke="#333333"/>
<text x="754" y="213" font-size="21" font-weight="600" fill="#121212" >Load-supply</text>
<text x="1368" y="212" font-size="11" font-weight="600" fill="#4c4c4c" text-anchor="end">03 MODES</text>
<rect x="754" y="234" width="48.57" height="29" rx="7" fill="#f5f5f5" stroke="#f5f5f5"/>
<text x="766" y="253" font-size="13" font-weight="600" fill="#333333" >V2L</text>
<rect x="810.57" y="234" width="48.57" height="29" rx="7" fill="#f5f5f5" stroke="#f5f5f5"/>
<text x="822.57" y="253" font-size="13" font-weight="600" fill="#333333" >V2V</text>
<rect x="867.1400000000001" y="234" width="73.14" height="29" rx="7" fill="#f5f5f5" stroke="#f5f5f5"/>
<text x="879.1400000000001" y="253" font-size="13" font-weight="600" fill="#333333" >V2H-AC</text>
<text x="48" y="327" font-size="12" font-weight="700" fill="#111111" >01</text>
<text x="80" y="327" font-size="13" font-weight="600" fill="#4c4c4c" letter-spacing="1">POWER CONVERSION</text>
<text x="1392" y="327" font-size="12" font-weight="400" fill="#4c4c4c" text-anchor="end">Arrows show hardware capability, not simultaneous power flow</text>
<rect x="311.4" y="348" width="817.2" height="137" rx="12" fill="#eeeeee" stroke="#a6a6a6"/>
<text x="324.4" y="365" font-size="11" font-weight="700" fill="#111111" letter-spacing="1.5">OBCM</text>
<path d="M289.4 422L321.4 422" fill="none" stroke="#242424" stroke-width="2" marker-start="url(#arrow)" marker-end="url(#arrow)" />
<path d="M565.8 422L597.8 422" fill="none" stroke="#242424" stroke-width="2" marker-start="url(#arrow)" marker-end="url(#arrow)" />
<path d="M842.1999999999999 422L874.1999999999999 422" fill="none" stroke="#242424" stroke-width="2" marker-start="url(#arrow)" marker-end="url(#arrow)" />
<path d="M1118.6 422L1150.6 422" fill="none" stroke="#242424" stroke-width="2" marker-start="url(#arrow)" marker-end="url(#arrow)" />
<rect x="48" y="375" width="238.4" height="94" rx="10" fill="#ffffff" stroke="#a6a6a6"/>
<text x="64" y="398" font-size="10" font-weight="600" fill="#4c4c4c" letter-spacing="0.8">EXTERNAL</text>
<text x="64" y="426" font-size="18" font-weight="600" fill="#121212" >AC interface</text>
<text x="64" y="455" font-size="13" font-weight="400" fill="#4c4c4c" >Grid / Load</text>
<rect x="324.4" y="375" width="238.4" height="94" rx="10" fill="#ffffff" stroke="#111111"/>
<text x="340.4" y="398" font-size="10" font-weight="600" fill="#4c4c4c" letter-spacing="0.8">POWER CONVERSION</text>
<text x="340.4" y="426" font-size="18" font-weight="600" fill="#121212" >Inverter</text>
<text x="340.4" y="455" font-size="13" font-weight="400" fill="#4c4c4c" >Bidirectional totem-pole</text>
<rect x="600.8" y="375" width="238.4" height="94" rx="10" fill="#ffffff" stroke="#a6a6a6"/>
<text x="616.8" y="398" font-size="10" font-weight="600" fill="#4c4c4c" letter-spacing="0.8">DC BUS</text>
<text x="616.8" y="426" font-size="18" font-weight="600" fill="#121212" >DC-link</text>
<text x="616.8" y="455" font-size="13" font-weight="400" fill="#4c4c4c" >Energy buffer</text>
<rect x="877.1999999999999" y="375" width="238.4" height="94" rx="10" fill="#ffffff" stroke="#111111"/>
<text x="893.1999999999999" y="398" font-size="10" font-weight="600" fill="#4c4c4c" letter-spacing="0.8">POWER CONVERSION</text>
<text x="893.1999999999999" y="426" font-size="18" font-weight="600" fill="#121212" >CLLC converter</text>
<text x="893.1999999999999" y="455" font-size="13" font-weight="400" fill="#4c4c4c" >Bidirectional DC-DC</text>
<rect x="1153.6" y="375" width="238.4" height="94" rx="10" fill="#ffffff" stroke="#a6a6a6"/>
<text x="1169.6" y="398" font-size="10" font-weight="600" fill="#4c4c4c" letter-spacing="0.8">EXTERNAL</text>
<text x="1169.6" y="426" font-size="18" font-weight="600" fill="#121212" >EV battery</text>
<text x="1169.6" y="455" font-size="13" font-weight="400" fill="#4c4c4c" >DC interface</text>
<text x="48" y="520" font-size="12" font-weight="700" fill="#111111" >02</text>
<text x="80" y="520" font-size="13" font-weight="600" fill="#4c4c4c" letter-spacing="1">CONTROL RESPONSIBILITY</text>
<text x="1392" y="520" font-size="12" font-weight="400" fill="#4c4c4c" text-anchor="end">A function list, not an independent-setpoint declaration</text>
<rect x="48" y="542" width="662" height="305" rx="2" fill="#ffffff" stroke="#a6a6a6"/>
<text x="72" y="574" font-size="19" font-weight="600" fill="#121212" >Grid-connected</text>
<path d="M72 590L686 590" fill="none" stroke="#a6a6a6" stroke-width="1" />
<text x="72" y="621" font-size="14" font-weight="600" fill="#4c4c4c" >Inverter</text>
<text x="72" y="658" font-size="23" font-weight="600" fill="#111111" >Vdc</text>
<text x="138" y="655" font-size="13" font-weight="400" fill="#121212" >DC-link voltage</text>
<text x="138" y="677" font-size="11" font-weight="400" fill="#4c4c4c" >All modes in this panel</text>
<text x="72" y="723" font-size="23" font-weight="600" fill="#121212" >Iac</text>
<text x="138" y="720" font-size="13" font-weight="400" fill="#121212" >AC current</text>
<text x="138" y="742" font-size="11" font-weight="400" fill="#4c4c4c" >All modes in this panel</text>
<text x="72" y="788" font-size="23" font-weight="600" fill="#121212" >Q</text>
<text x="138" y="785" font-size="13" font-weight="400" fill="#121212" >Reactive power</text>
<text x="138" y="807" font-size="11" font-weight="400" fill="#4c4c4c" >V2G-AC only</text>
<text x="379" y="621" font-size="14" font-weight="600" fill="#4c4c4c" >CLLC converter</text>
<text x="379" y="658" font-size="23" font-weight="600" fill="#121212" >Ibat</text>
<text x="445" y="655" font-size="13" font-weight="400" fill="#121212" >Battery current</text>
<text x="445" y="677" font-size="11" font-weight="400" fill="#4c4c4c" >All modes in this panel</text>
<text x="379" y="723" font-size="23" font-weight="600" fill="#121212" >P</text>
<text x="445" y="720" font-size="13" font-weight="400" fill="#121212" >Active power</text>
<text x="445" y="742" font-size="11" font-weight="400" fill="#4c4c4c" >V2G-AC only</text>
<rect x="730" y="542" width="662" height="305" rx="2" fill="#ffffff" stroke="#a6a6a6"/>
<text x="754" y="574" font-size="19" font-weight="600" fill="#121212" >Load-supply</text>
<path d="M754 590L1368 590" fill="none" stroke="#a6a6a6" stroke-width="1" />
<text x="754" y="621" font-size="14" font-weight="600" fill="#4c4c4c" >Inverter</text>
<text x="754" y="658" font-size="23" font-weight="600" fill="#121212" >Iac</text>
<text x="820" y="655" font-size="13" font-weight="400" fill="#121212" >AC current</text>
<text x="820" y="677" font-size="11" font-weight="400" fill="#4c4c4c" >All modes in this panel</text>
<text x="754" y="723" font-size="23" font-weight="600" fill="#121212" >Vac</text>
<text x="820" y="720" font-size="13" font-weight="400" fill="#121212" >AC voltage</text>
<text x="820" y="742" font-size="11" font-weight="400" fill="#4c4c4c" >All modes in this panel</text>
<text x="1061" y="621" font-size="14" font-weight="600" fill="#4c4c4c" >CLLC converter</text>
<text x="1061" y="658" font-size="23" font-weight="600" fill="#333333" >Vdc</text>
<text x="1127" y="655" font-size="13" font-weight="400" fill="#121212" >DC-link voltage</text>
<text x="1127" y="677" font-size="11" font-weight="400" fill="#4c4c4c" >All modes in this panel</text>
<text x="1061" y="723" font-size="23" font-weight="600" fill="#121212" >Ibat</text>
<text x="1127" y="720" font-size="13" font-weight="400" fill="#121212" >Battery current</text>
<text x="1127" y="742" font-size="11" font-weight="400" fill="#4c4c4c" >All modes in this panel</text>
<rect x="48" y="867" width="1344" height="102" rx="2" fill="#eeeeee" stroke="#eeeeee"/>
<text x="72" y="894" font-size="12" font-weight="700" fill="#111111" letter-spacing="0.7">VDC  /  DECLARED REGULATION RESPONSIBILITY</text>
<text x="72" y="921" font-size="15" font-weight="500" fill="#121212" >Charging / V2G-AC  :  Inverter</text>
<text x="72" y="943" font-size="15" font-weight="500" fill="#121212" >V2L / V2V / V2H-AC  :  CLLC converter</text>
<path d="M48 993L1392 993" fill="none" stroke="#a6a6a6" stroke-width="1" />
<text x="48" y="1019" font-size="12" font-weight="400" fill="#4c4c4c" >Generic, illustrative example. Not an OEM-approved architecture or a statement of compliance.</text>
<text x="48" y="1044" font-size="12" font-weight="400" fill="#4c4c4c" >Control responsibility does not mean every listed quantity is an independent simultaneous setpoint. Unspecified loop roles remain unspecified.</text>
<text x="48" y="1069" font-size="12" font-weight="400" fill="#4c4c4c" >Hardware bidirectionality is distinct from the power-flow direction enabled in each operating mode.</text>
<text x="48" y="1108" font-size="10" font-weight="600" fill="#4c4c4c" letter-spacing="1.4">SOURCE → MODEL → VIEW</text>
<text x="1392" y="1108" font-size="10" font-weight="400" fill="#4c4c4c" text-anchor="end">Generated deterministically · Edit the YAML, not this SVG</text>
</svg>
